<!-- icon666.com - MILLIONS vector ICONS FREE --><svg viewBox="0 0 64 64" xmlns="http://www.w3.org/2000/svg"><g id="Ikon"><circle cx="32" cy="32" fill="#f44336" r="29"></circle><path d="m33.4618 9.5654 12.8414 13.7521a1 1 0 0 1 -.7309 1.6825h-5.5723a1 1 0 0 0 -1 1v26.959a2 2 0 0 1 -2.7922 1.8364l-3.4464-1.4867a2 2 0 0 0 -1.5911.0029l-3.3714 1.4689a2 2 0 0 1 -2.7989-1.8335v-26.947a1 1 0 0 0 -1-1h-5.5723a1 1 0 0 1 -.7309-1.6825l12.8414-13.7521a2 2 0 0 1 2.9236 0z" fill="#fff"></path></g><g id="line"><path d="m32 2a30 30 0 1 0 30 30 30.034 30.034 0 0 0 -30-30zm0 58a28 28 0 1 1 28-28 28.0314 28.0314 0 0 1 -28 28z"></path>
<path d="m34.2391 8.9293a3.0208 3.0208 0 0 0 -4.3857 0l-12.8418 13.753a2.0107 2.0107 0 0 0 1.4624 3.3642h5.5723v26.9473a3.02 3.02 0 0 0 4.1982 2.75l3.3716-1.4688a1.0053 1.0053 0 0 1 .7954-.0019l3.4463 1.4863a3.0191 3.0191 0 0 0 4.1885-2.7539v-26.959h5.5722a2.01 2.01 0 0 0 1.4615-3.3652zm5.8072 15.1172a2.0023 2.0023 0 0 0 -2 2v26.959a1.0045 1.0045 0 0 1 -1.396.918l-3.4473-1.4864a3.01 3.01 0 0 0 -2.3857.0039l-3.3721 1.469a1.0041 1.0041 0 0 1 -1.3989-.916v-26.9475a2.0023 2.0023 0 0 0 -2-2h-5.5723l12.8413-13.7519a1.0046 1.0046 0 0 1 1.4619 0l12.8413 13.7519z"></path></g></svg>