<svg viewBox="0 0 48 48" xmlns="http://www.w3.org/2000/svg"><path d="M12.1 12c.2.3.5.4.8.4.2 0 .4-.1.6-.2.4-.3.5-1 .2-1.4l-.6-.8c-.3-.4-.9-.5-1.4-.2-.4.3-.5 1-.2 1.4zM7 27.8l-1 .3c-.5.2-.8.7-.6 1.3.1.4.5.7 1 .7h.3l1-.3c.5-.2.8-.7.6-1.3-.2-.5-.8-.8-1.3-.7zM22.1 9.5c.6 0 1-.4 1-1v-1c0-.6-.4-1-1-1s-1 .4-1 1v1c0 .6.4 1 1 1zm-16 10.4s1.2.4 1.3.4c.4 0 .8-.3 1-.7.2-.5-.1-1.1-.6-1.3l-1-.3c-.5-.2-1.1.1-1.3.6-.3.5 0 1.1.6 1.3zm6 16.1-.6.8c-.3.4-.2 1.1.2 1.4.2.1.4.2.6.2.3 0 .6-.1.8-.4l.6-.8c.3-.4.2-1.1-.2-1.4-.4-.4-1-.3-1.4.2zm30.2-13.8c-.3-.2-.7-.3-1-.2-.9.3-1.9.5-2.9.3-3.2-.5-5.5-3.5-5-6.7.2-1.2.7-2.3 1.6-3.2.3-.3.3-.7.2-1-.1-.4-.5-.6-1-.7-2.4-.4-4.8.2-6.8 1.4-1.6-.7-3.4-1.1-5.2-1.1-7.2-.1-13.1 5.8-13.1 13S15 37.1 22.2 37.1c4.5 0 8.7-2.3 11.1-6.1 4.4-.2 8.3-3.3 9.4-7.8 0-.4-.1-.8-.4-1zM22.2 35.1c-6.1 0-11.1-5-11.1-11.1s5-11.1 11.1-11.1c1.2 0 2.3.2 3.4.5-1.6 1.5-2.6 3.5-3 5.8-.8 5.5 2.9 10.6 8.3 11.5-2.1 2.8-5.3 4.4-8.7 4.4zm9.3-6.2c-4.5-.7-7.6-4.8-7-9.3.6-4 3.9-6.9 7.8-7-.5.8-.8 1.8-.9 2.8-.6 4.3 2.4 8.3 6.7 9 .7.1 1.3.1 2 0-1.5 3.1-5 5-8.6 4.5zM32 36c-.3-.4-.9-.5-1.4-.2-.4.3-.5 1-.2 1.4l.6.8c.2.3.5.4.8.4.2 0 .4-.1.6-.2.4-.3.5-1 .2-1.4zm-9.9 2.5c-.6 0-1 .4-1 1v1c0 .6.4 1 1 1s1-.4 1-1v-1c0-.6-.5-1-1-1z"/></svg>